<svg width="275" height="267" viewBox="0 0 275 267" fill="none" xmlns="http://www.w3.org/2000/svg">
<path d="M91.1826 76.4256L102.297 108.62C103.393 111.794 107.244 113.007 109.961 111.034L180.127 60.0863C181.847 58.8369 184.17 58.8125 185.917 60.0254L260.826 112.046C264.758 114.776 269.909 110.953 268.435 106.399L251.054 52.7121C250.696 51.6055 249.963 50.6583 248.982 50.0338L181.934 7.36739C180.171 6.24491 177.895 6.33844 176.229 7.60187L92.8875 70.8101C91.1649 72.1165 90.4771 74.382 91.1826 76.4256Z" fill="#fff"/>
<path d="M177.087 71.5353L151.898 90.2471C148.694 92.6271 148.664 97.4134 151.837 99.834L220.138 151.935C222.154 153.473 222.986 156.113 222.216 158.529L196.203 240.113C194.429 245.678 200.846 250.24 205.52 246.735L248.971 214.147C249.966 213.401 250.704 212.364 251.084 211.18L274.625 137.786C275.44 135.246 274.48 132.474 272.27 130.981L184.023 71.3796C181.913 69.954 179.132 70.0164 177.087 71.5353Z" fill="#fff"/>
<path d="M144.947 215.076L173.869 136.635C175.211 132.996 179.6 131.567 182.827 133.718L210.308 152.039C212.502 153.501 213.484 156.225 212.729 158.751L181.78 262.219C181.021 264.76 178.683 266.5 176.032 266.5H97.5875C96.2356 266.5 94.9233 266.043 93.8633 265.204L49.0212 229.704C44.5623 226.174 47.0584 219 52.7454 219H139.317C141.831 219 144.078 217.434 144.947 215.076Z" fill="#fff"/>
<path d="M17.7609 82.9678L1.14145 132.104C0.7251 133.334 0.719629 134.667 1.12586 135.902L25.1426 208.876C25.9526 211.337 28.2509 213 30.8419 213H136.002C138.668 213 141.014 211.241 141.761 208.682L151.256 176.182C152.378 172.342 149.497 168.5 145.496 168.5H61.8312C59.2454 168.5 56.9505 166.843 56.1364 164.389L29.1394 83.0012C27.3269 77.5369 19.6055 77.5142 17.7609 82.9678Z" fill="#fff"/>
<path d="M60.6436 154.874L27.8395 55.075C27.0383 52.6377 27.8755 49.9608 29.9224 48.4142L92.3225 1.26741C93.4085 0.446925 94.7411 0.0200298 96.1016 0.0568013L150.603 1.52982C156.305 1.68393 158.595 8.95833 154.01 12.3509L84.8936 63.4892C82.8579 64.9953 81.987 67.6174 82.717 70.0422L107.173 151.27C108.332 155.121 105.449 159 101.428 159H66.3436C63.7518 159 61.453 157.336 60.6436 154.874Z" fill="#fff"/>
</svg>
